<svg xmlns="http://www.w3.org/2000/svg" width="28" height="28" fill="none"><path stroke="#FAFAFA" stroke-linecap="round" stroke-linejoin="round" stroke-miterlimit="10" stroke-width="1.5" d="M9.917 22.166h-.584c-4.666 0-7-1.166-7-7V9.333c0-4.667 2.334-7 7-7h9.334c4.666 0 7 2.333 7 7v5.833c0 4.667-2.334 7-7 7h-.584c-.361 0-.711.175-.933.467l-1.75 2.333c-.77 1.027-2.03 1.027-2.8 0l-1.75-2.333c-.187-.257-.618-.467-.933-.467Z"/><path stroke="#FAFAFA" stroke-linecap="round" stroke-linejoin="round" stroke-width="1.5" d="M8.167 9.333h11.666M8.167 15.167h7"/></svg>
