<svg xmlns="http://www.w3.org/2000/svg" width="628" height="628" fill="none"><path fill="#7252F5" d="M428 100C428 44.772 472.772 0 528 0h100v100c0 55.228-44.772 100-100 100H428V100Z"/><path fill="#444ADE" d="M0 528c0-55.228 44.772-100 100-100h100v100c0 55.228-44.772 100-100 100H0V528Z"/><circle cx="414" cy="414" r="214" fill="#444ADE"/><circle cx="214" cy="214" r="214" fill="#1DE1C3"/><path fill="#7252F5" d="M200 300c0-55.228 44.772-100 100-100h128v128c0 55.228-44.772 100-100 100H200V300Z"/></svg>
